# xmcd
#
# Track frame offsets:
#	183
#	52090
#	68353
#	91420
#	111285
#	133135
#	151895
#	164568
#	178503
#	195943
#	212835
#	223293
#	242568
#	255773
#
# Disc length: 3608 seconds
#
# Revision: 1
# Processed by: cddbd v1.4PL0 Copyright (c) Steve Scherf et al.
# Submitted via: audiograbber 1.82.01
#
DISCID=c20e160e
DTITLE=Harry Belafonte - European Kings Club- Live
DYEAR=1900
DGENRE=Acoustic
TTITLE0=Matilda
TTITLE1=Banana Boat Song
TTITLE2=Jamaica Farewell
TTITLE3=Man Smart, Woman Smarter
TTITLE4=Bring A Little Water, Sylvie
TTITLE5=Them Old Cottonfields
TTITLE6=When The Saints Go Marchin In
TTITLE7=Come Back Liza
TTITLE8=Hava Nageela
TTITLE9=Shenandoah
TTITLE10=Chickens
TTITLE11=There's A Hole In My Bucket
TTITLE12=One More Dance
TTITLE13=I Know Where I'm Going
EXTD=
EXTT0=
EXTT1=
EXTT2=
EXTT3=
EXTT4=
EXTT5=
EXTT6=
EXTT7=
EXTT8=
EXTT9=
EXTT10=
EXTT11=
EXTT12=
EXTT13=
PLAYORDER=
